<svg id="aad34d2c-b6e7-481f-91dd-037f78086296" xmlns="http://www.w3.org/2000/svg" viewBox="0 0 133 293.77"><defs><style>.cls-1{fill:#3f3d56;}.cls-2{fill:#ffb9b9;}.cls-3{opacity:0.1;isolation:isolate;}.cls-4{fill:#d0cde1;}.cls-5{fill:#2f2e41;}.cls-6{fill:#12aef9;}.cls-7{fill:#f2f2f2;}</style></defs><path class="cls-1" d="M597.32,584.85h-2V366a6,6,0,0,0-2.22-4.66l1.27-1.55a8,8,0,0,1,3,6.21Z" transform="translate(-540.32 -358.01)"/><path class="cls-2" d="M618.75,530s11.31-11.87,15.94-9.48-13.31,13-13.31,13Z" transform="translate(-540.32 -358.01)"/><path class="cls-3" d="M618.75,530s11.31-11.87,15.94-9.48-13.31,13-13.31,13Z" transform="translate(-540.32 -358.01)"/><path class="cls-4" d="M584.23,504.11s-4.16,7.45-3.07,15.49,11,33.81,14.42,33.36S624,534,624,534l-4.78-6.67-18.31,11.09S598.15,498.78,584.23,504.11Z" transform="translate(-540.32 -358.01)"/><path class="cls-5" d="M652.11,522.25l-28.54,15.68a1.35,1.35,0,0,1-1.88-.38,2.12,2.12,0,0,1-.11-.21l-7-14.61a1.83,1.83,0,0,1,.94-2.19l23.69-12.22a1.4,1.4,0,0,1,1.82.35l11.83,11.15a1.74,1.74,0,0,1-.67,2.39Z" transform="translate(-540.32 -358.01)"/><polygon class="cls-6" points="109.89 162.09 83.14 177.38 76.02 164.55 98.97 152.07 109.89 162.09"/><ellipse class="cls-7" cx="627.5" cy="515.46" rx="0.39" ry="0.34" transform="translate(-710.61 309.03) rotate(-50.16)"/><ellipse class="cls-7" cx="637.44" cy="528.59" rx="0.26" ry="0.22" transform="translate(-717.12 321.37) rotate(-50.16)"/><path class="cls-3" d="M584.23,504.11s-4.16,7.45-3.07,15.49,11,33.81,14.42,33.36S624,534,624,534l-4.78-6.67-18.31,11.09S598.15,498.78,584.23,504.11Z" transform="translate(-540.32 -358.01)"/><path class="cls-2" d="M611.1,532.28S623.9,522,628.17,525s-14.94,11.1-14.94,11.1Z" transform="translate(-540.32 -358.01)"/><circle class="cls-2" cx="53.71" cy="120.93" r="12.38"/><path class="cls-2" d="M636.7,565.14s13.23,1.7,12.8,9.81-10.24,41.82-10.24,41.82L638.41,630s.85,22.19-1.71,21.77S628.17,636,628.17,636s-7.26-4.7-3.84-9,6-3.85,5.12-8.54-.43-24.32,2.13-30.3,4-9.27,4-9.27l-8.32-.54Z" transform="translate(-540.32 -358.01)"/><path class="cls-3" d="M636.7,565.14s13.23,1.7,12.8,9.81-10.24,41.82-10.24,41.82L638.41,630s.85,22.19-1.71,21.77S628.17,636,628.17,636s-7.26-4.7-3.84-9,6-3.85,5.12-8.54-.43-24.32,2.13-30.3,4-9.27,4-9.27l-8.32-.54Z" transform="translate(-540.32 -358.01)"/><path class="cls-2" d="M637.56,567.27s12.8,3,14.08,11.52,7.68,33.72,7.68,33.72l6.83,15.79s10.67,19.2,6,18.77-11.09-9.81-13.23-9.81-8.53-2.56-8.1-4.27,3.41-6.83,3.41-6.83l-10.33-18a43.41,43.41,0,0,1-4.47-11.09c-1.06-4.21-2.27-9.37-2.27-11,0-3-8.54-4.27-8.54-4.27Z" transform="translate(-540.32 -358.01)"/><path class="cls-5" d="M595.74,540l6,17.07s9.39,2.56,16.22,4.69,19.63-.85,20.91,4.27-2.56,14.08-6.4,16.22-6,4.26-18.35.85-41.83-4.27-41.83-4.27a21.22,21.22,0,0,1-9.38,3c-5.55.43-6.83.85-8.54-.43s.85-1.28,1.71-4.69,1.28-2.13,5.12-6,6.83-15.36,9-19.2S573.54,540,573.54,540Z" transform="translate(-540.32 -358.01)"/><path class="cls-2" d="M594.88,489.18a12.5,12.5,0,0,0-5.12,9.81c0,6.4-12.8-6.83-12.8-6.83s6.83-8.53,6.83-11.09S594.88,489.18,594.88,489.18Z" transform="translate(-540.32 -358.01)"/><path class="cls-4" d="M578.67,486.62s7.68,3,9.38,7.25,8.11,13.23,8.11,13.23,9,9.39,6,19.63-5.55,12.8-5.55,14.51-4.27,4.69-7.68,4.27-16.22-2.14-17.07-3.84-6-26-2.56-35A205.35,205.35,0,0,1,578.67,486.62Z" transform="translate(-540.32 -358.01)"/><path class="cls-5" d="M597.62,479.5c2.77.66,5.48-1.11,7.75-2.86,1.29-1,2.71-2.41,2.32-4-.35-1.42-2-2.22-2.27-3.66-.17-1,.42-2,.47-3a4.25,4.25,0,0,0-2.49-3.63c-1.35-.72-2.88-1-4.26-1.68-2.12-1-3.88-2.78-6.14-3.35-3.09-.79-6.23.88-9.41,1.1-1.92.13-3.87-.28-5.77,0a8.24,8.24,0,0,0-6.6,7.77c0,1.36.25,2.88-.56,3.95a6.35,6.35,0,0,1-1.08,1c-2.83,2.28-4.11,6.09-4.26,9.77-.07,1.81.31,4,1.92,4.73a7.11,7.11,0,0,0,2.67.37,2.77,2.77,0,0,1,2.36,1.13c.73,1.29-.36,3.19.6,4.32.71.84,2.11.56,3-.16s1.37-1.76,2.16-2.53c1.55-1.49,3.84-1.77,6-2a3.06,3.06,0,0,0,1.75-.58,2.66,2.66,0,0,0,.72-1.47,9.13,9.13,0,0,0,0-3.86,2.11,2.11,0,0,1,0-1.22,1.7,1.7,0,0,1,.63-.7c1.31-1,3.61-2.43,5.32-2.15C594.21,477.13,595.71,479,597.62,479.5Z" transform="translate(-540.32 -358.01)"/><path class="cls-4" d="M580.37,502s-5.12,6.83-5.12,14.94,6.4,35,9.82,35S615.79,537,615.79,537L612,529.72l-19.63,8.53S594.88,498.57,580.37,502Z" transform="translate(-540.32 -358.01)"/><rect class="cls-6" y="221" width="98" height="19"/><path class="cls-1" d="M589.32,599a8,8,0,0,1-8-8V366a8,8,0,0,1,13-6.21l-1.27,1.55a6,6,0,0,0-9.78,4.66V591a6,6,0,0,0,6,6Z" transform="translate(-540.32 -358.01)"/><ellipse class="cls-6" cx="572.32" cy="471.01" rx="1" ry="3" transform="matrix(0.78, -0.63, 0.63, 0.78, -709.16, 104.13)"/></svg>