<svg xmlns="http://www.w3.org/2000/svg" viewBox="0 0 164.33 127.31"><defs><style>.cls-1{fill:#fff;}.cls-2{fill:#27251e;}.cls-3{fill:#008995;}</style></defs><g id="Layer_2" data-name="Layer 2"><g id="Capa_1" data-name="Capa 1"><path class="cls-1" d="M119.32,44.79V32.34h-8.13a28.16,28.16,0,0,0-3.71-9.05l5.79-5.78-8.8-8.8-5.75,5.74a28.42,28.42,0,0,0-9-3.78V2.5H77.25v8.13a28,28,0,0,0-9.06,3.71L62.41,8.56l-8.8,8.79,5.74,5.75a28.55,28.55,0,0,0-3.78,9H47.4V44.57h8.13a28.12,28.12,0,0,0,3.71,9.06l-5.78,5.78,8.79,8.8L68,62.46a28.34,28.34,0,0,0,9,3.79v8.17H89.47V66.29a28.35,28.35,0,0,0,9.06-3.71l5.78,5.78,8.8-8.79-5.75-5.75a28,28,0,0,0,3.78-9ZM83.36,51A12.55,12.55,0,1,1,95.91,38.46,12.55,12.55,0,0,1,83.36,51Z"/><path class="cls-2" d="M89.47,76.92H77a2.51,2.51,0,0,1-2.5-2.5V68.17a30.57,30.57,0,0,1-6.14-2.57L64,70a2.52,2.52,0,0,1-1.77.74h0A2.52,2.52,0,0,1,60.48,70l-8.79-8.79a2.5,2.5,0,0,1,0-3.53l4.42-4.42a30.59,30.59,0,0,1-2.53-6.16H47.4a2.5,2.5,0,0,1-2.5-2.5V32.13a2.5,2.5,0,0,1,2.5-2.5h6.24a31.51,31.51,0,0,1,2.57-6.14l-4.37-4.37a2.51,2.51,0,0,1,0-3.54l8.8-8.79a2.5,2.5,0,0,1,3.53,0l4.42,4.42a30.56,30.56,0,0,1,6.16-2.52V2.5A2.5,2.5,0,0,1,77.25,0H89.69a2.5,2.5,0,0,1,2.5,2.5V8.75a31.12,31.12,0,0,1,6.14,2.56L102.7,7a2.48,2.48,0,0,1,3.53,0l8.8,8.79a2.49,2.49,0,0,1,0,3.53l-4.42,4.43a30.39,30.39,0,0,1,2.52,6.14h6.19a2.49,2.49,0,0,1,2.49,2.5V44.79a2.49,2.49,0,0,1-2.49,2.5h-6.24a31.19,31.19,0,0,1-2.58,6.14l4.38,4.37a2.51,2.51,0,0,1,0,3.54l-8.81,8.79a2.5,2.5,0,0,1-3.53,0l-4.42-4.42A30.24,30.24,0,0,1,92,68.23v6.19A2.51,2.51,0,0,1,89.47,76.92Zm-9.94-5H87V66.29a2.51,2.51,0,0,1,2-2.44,25.67,25.67,0,0,0,8.27-3.39,2.5,2.5,0,0,1,3.09.36l4,4,5.27-5.26-4-4a2.48,2.48,0,0,1-.34-3.12,25.7,25.7,0,0,0,3.45-8.22,2.5,2.5,0,0,1,2.43-2h5.68V34.84h-5.63a2.5,2.5,0,0,1-2.44-2,25.72,25.72,0,0,0-3.38-8.26,2.49,2.49,0,0,1,.34-3.09l4-4-5.26-5.27-4,4a2.48,2.48,0,0,1-3.11.34,25.68,25.68,0,0,0-8.24-3.45,2.5,2.5,0,0,1-1.94-2.44V5H79.75v5.63a2.51,2.51,0,0,1-2,2.44,25.72,25.72,0,0,0-8.26,3.38,2.5,2.5,0,0,1-3.1-.35l-4-4-5.27,5.26,4,4a2.5,2.5,0,0,1,.34,3.11A25.49,25.49,0,0,0,58,32.69a2.5,2.5,0,0,1-2.44,1.94H49.9v7.44h5.63A2.51,2.51,0,0,1,58,44a25.69,25.69,0,0,0,3.38,8.27A2.5,2.5,0,0,1,61,55.4l-4,4,5.26,5.27,4-4a2.49,2.49,0,0,1,3.11-.33,25.91,25.91,0,0,0,8.23,3.45,2.5,2.5,0,0,1,2,2.44Zm3.83-18.41a15,15,0,1,1,15-15A15.07,15.07,0,0,1,83.36,53.51Zm0-25.11a10.06,10.06,0,1,0,10,10.06A10.07,10.07,0,0,0,83.36,28.4Z"/><rect class="cls-1" x="16.09" y="38.46" width="133.1" height="69.84"/><path class="cls-2" d="M149.19,110.8H16.09a2.5,2.5,0,0,1-2.5-2.5V38.46a2.5,2.5,0,0,1,2.5-2.5h133.1a2.5,2.5,0,0,1,2.5,2.5V108.3A2.5,2.5,0,0,1,149.19,110.8Zm-130.6-5H146.7V41H18.59Z"/><rect class="cls-3" x="28.26" y="48.06" width="110.2" height="53.67"/><rect class="cls-1" x="2.5" y="105.44" width="159.34" height="19.37"/><path class="cls-2" d="M161.84,127.31H2.5a2.5,2.5,0,0,1-2.5-2.5V105.44a2.5,2.5,0,0,1,2.5-2.5H161.84a2.5,2.5,0,0,1,2.49,2.5v19.37A2.5,2.5,0,0,1,161.84,127.31ZM5,122.31H159.34V107.94H5Z"/><path class="cls-3" d="M152.18,115.12c0,2.92-1.25,5.28-2.8,5.28h-135c-1.54,0-2.8-2.36-2.8-5.28h0c0-2.91,1.26-5.28,2.8-5.28h135c1.55,0,2.8,2.37,2.8,5.28Z"/><rect class="cls-1" x="52.35" y="106.15" width="59.04" height="11.19"/><path class="cls-2" d="M111.39,119.84h-59a2.5,2.5,0,0,1-2.5-2.5V106.15a2.5,2.5,0,0,1,2.5-2.49h59a2.5,2.5,0,0,1,2.5,2.49v11.19A2.5,2.5,0,0,1,111.39,119.84Zm-56.54-5h54v-6.19h-54Z"/><path class="cls-1" d="M128,99.16a45.26,45.26,0,0,0-5.39-17,45.55,45.55,0,0,0-40-23.56,44.59,44.59,0,0,0-7.45.61,45.63,45.63,0,0,0-37.92,39.9Z"/><path class="cls-2" d="M130.81,101.66H34.48l.31-2.78a48.09,48.09,0,0,1,40-42.09A48.58,48.58,0,0,1,91.53,57a48.09,48.09,0,0,1,39,41.91Zm-90.65-5h85A43.13,43.13,0,0,0,90.61,61.88a43.49,43.49,0,0,0-15-.16A43.11,43.11,0,0,0,40.16,96.66Z"/><path class="cls-2" d="M115.88,101.66H34.48l.31-2.78a48.09,48.09,0,0,1,40-42.09l.4-.06.4.06a47.77,47.77,0,0,1,8.89,2.35,48,48,0,0,1,31.1,39.74Zm-75.72-5h70.05a43,43,0,0,0-35-34.87,43.11,43.11,0,0,0-35,34.87Z"/><path class="cls-2" d="M130.81,101.66H51.33l.31-2.78A47.57,47.57,0,0,1,55,85.94a48.34,48.34,0,0,1,27.77-26.8A47.8,47.8,0,0,1,90.61,57l.46-.09.46.09a48.09,48.09,0,0,1,39,41.91Zm-73.8-5h68.12A43.15,43.15,0,0,0,91.07,62,43,43,0,0,0,57,96.66Z"/><path class="cls-2" d="M82.76,91.94a124.49,124.49,0,0,1-26-2.61,67.44,67.44,0,0,1-15.11-5l-2.38-1.15,1.28-2.31A47.92,47.92,0,0,1,74.78,56.79,48.58,48.58,0,0,1,91.53,57,48,48,0,0,1,124.8,81l1.29,2.32-2.39,1.14A65,65,0,0,1,110.38,89,122.46,122.46,0,0,1,82.76,91.94ZM46.31,81a68.45,68.45,0,0,0,11.48,3.46,119.93,119.93,0,0,0,25,2.49,118,118,0,0,0,26.47-2.82,67.27,67.27,0,0,0,9.8-3.06A42.94,42.94,0,0,0,90.61,61.88a43.49,43.49,0,0,0-15-.16A42.83,42.83,0,0,0,46.31,81Z"/></g></g></svg>