<svg xmlns="http://www.w3.org/2000/svg" viewBox="0 0 164.34 155.19"><defs><style>.cls-1{fill:#fff;}.cls-2{fill:#27251e;}.cls-3{fill:#f6a75f;}.cls-4{fill:#008995;}</style></defs><g id="Layer_2" data-name="Layer 2"><g id="Capa_1" data-name="Capa 1"><rect class="cls-1" x="68.96" y="109.01" width="26.42" height="38.88"/><path class="cls-2" d="M95.38,150.39H69a2.5,2.5,0,0,1-2.5-2.5V109a2.5,2.5,0,0,1,2.5-2.5H95.38a2.5,2.5,0,0,1,2.5,2.5v38.88A2.5,2.5,0,0,1,95.38,150.39Zm-23.92-5H92.88V111.51H71.46Z"/><rect class="cls-1" x="2.5" y="16.11" width="159.34" height="83.61"/><path class="cls-2" d="M161.84,102.22H2.5A2.5,2.5,0,0,1,0,99.72V16.11a2.5,2.5,0,0,1,2.5-2.5H161.84a2.51,2.51,0,0,1,2.5,2.5V99.72A2.51,2.51,0,0,1,161.84,102.22ZM5,97.22H159.34V18.61H5Z"/><rect class="cls-3" x="8.17" y="23.86" width="148" height="68.93"/><rect class="cls-1" x="2.5" y="99.72" width="159.34" height="18.73"/><path class="cls-2" d="M161.84,121H2.5a2.5,2.5,0,0,1-2.5-2.5V99.72a2.5,2.5,0,0,1,2.5-2.5H161.84a2.51,2.51,0,0,1,2.5,2.5v18.73A2.51,2.51,0,0,1,161.84,121ZM5,116H159.34V102.22H5Z"/><rect class="cls-1" x="36.69" y="138.61" width="90.96" height="14.08"/><path class="cls-2" d="M127.65,155.19h-91a2.51,2.51,0,0,1-2.5-2.5V138.61a2.5,2.5,0,0,1,2.5-2.5h91a2.5,2.5,0,0,1,2.5,2.5v14.08A2.51,2.51,0,0,1,127.65,155.19Zm-88.47-5h86v-9.08h-86Z"/><rect class="cls-1" x="13.3" y="31.12" width="67.24" height="7.36"/><rect class="cls-1" x="13.3" y="44.83" width="46.53" height="7.1"/><rect class="cls-1" x="64.05" y="44.83" width="14.99" height="7.1"/><rect class="cls-1" x="13.42" y="57.32" width="58.12" height="7.1"/><rect class="cls-1" x="13.42" y="70.75" width="46.53" height="7.11"/><rect class="cls-1" x="37.4" y="2.5" width="97.65" height="79.65"/><path class="cls-2" d="M135.06,84.64H37.4a2.5,2.5,0,0,1-2.5-2.49V2.5A2.51,2.51,0,0,1,37.4,0h97.66a2.49,2.49,0,0,1,2.49,2.5V82.15A2.48,2.48,0,0,1,135.06,84.64Zm-95.16-5h92.66V5H39.9Z"/><rect class="cls-4" x="46.33" y="26.4" width="80.85" height="47.34"/><rect class="cls-1" x="55.22" y="34.3" width="62.71" height="10.88"/><rect class="cls-1" x="55.22" y="50.07" width="16.27" height="7.27"/><rect class="cls-1" x="78.62" y="50.07" width="16.27" height="7.27"/><rect class="cls-1" x="101.66" y="50.07" width="16.27" height="7.27"/><rect class="cls-4" x="46.33" y="12.45" width="80.85" height="8.8"/></g></g></svg>