<svg xmlns="http://www.w3.org/2000/svg" viewBox="0 0 142.29 164.34"><defs><style>.cls-1{fill:#fff;}.cls-2{fill:#27251e;}.cls-3{fill:#f6a75f;}</style></defs><g id="Layer_2" data-name="Layer 2"><g id="Capa_1" data-name="Capa 1"><path class="cls-1" d="M17.84,44.26v8.92H50.31a18.22,18.22,0,0,1,36.43,0h32.47V44.56H100.7a33,33,0,0,0-3.18-7.76l13.15-13.15-12.4-12.4L85.18,24.34a33.72,33.72,0,0,0-7.74-3.25V2.5H59.91V21a33,33,0,0,0-7.76,3.17L39,11,26.59,23.44l13.1,13.09a32.78,32.78,0,0,0-3.25,7.73Z"/><path class="cls-2" d="M119.21,55.68H86.74a2.5,2.5,0,0,1-2.5-2.5,15.72,15.72,0,0,0-31.43,0,2.5,2.5,0,0,1-2.5,2.5H17.84a2.5,2.5,0,0,1-2.5-2.5V44.26a2.5,2.5,0,0,1,2.5-2.5H34.59a34.52,34.52,0,0,1,2-4.78L24.83,25.2a2.5,2.5,0,0,1,0-3.53l12.4-12.4a2.49,2.49,0,0,1,3.53,0L52.6,21.11a36.51,36.51,0,0,1,4.81-2V2.5A2.5,2.5,0,0,1,59.91,0H77.44a2.5,2.5,0,0,1,2.5,2.5V19.25a35.17,35.17,0,0,1,4.79,2L96.5,9.49a2.49,2.49,0,0,1,3.53,0l12.41,12.39a2.51,2.51,0,0,1,0,3.54L100.59,37.26a35.07,35.07,0,0,1,2,4.8h16.65a2.51,2.51,0,0,1,2.5,2.5v8.62A2.51,2.51,0,0,1,119.21,55.68Zm-30.13-5h27.63V47.06h-16a2.51,2.51,0,0,1-2.42-1.85A30.45,30.45,0,0,0,95.35,38a2.48,2.48,0,0,1,.4-3l11.38-11.39-8.86-8.86L87,26.11a2.48,2.48,0,0,1-3,.39,30.25,30.25,0,0,0-7.15-3A2.52,2.52,0,0,1,75,21.09V5H62.41V21a2.49,2.49,0,0,1-1.86,2.41,30.91,30.91,0,0,0-7.18,2.94,2.5,2.5,0,0,1-3-.4L39,14.57l-8.87,8.87L41.45,34.76a2.5,2.5,0,0,1,.4,3,30.52,30.52,0,0,0-3,7.15,2.51,2.51,0,0,1-2.41,1.83H20.34v3.92H48a20.71,20.71,0,0,1,41.11,0Z"/><rect class="cls-3" x="7.9" y="57.37" width="126.48" height="10.29"/><path class="cls-2" d="M139.78,74.34H2.5A2.5,2.5,0,0,1,0,71.84V53.18a2.5,2.5,0,0,1,2.5-2.5H139.78a2.51,2.51,0,0,1,2.51,2.5V71.84A2.51,2.51,0,0,1,139.78,74.34ZM5,69.34H137.29V55.68H5Z"/><rect class="cls-1" x="2.5" y="73.56" width="137.29" height="88.28"/><path class="cls-2" d="M139.78,164.34H2.5a2.5,2.5,0,0,1-2.5-2.5V73.56a2.5,2.5,0,0,1,2.5-2.5H139.78a2.51,2.51,0,0,1,2.51,2.5v88.28A2.51,2.51,0,0,1,139.78,164.34ZM5,159.34H137.29V76.06H5Z"/><rect class="cls-3" x="15.05" y="83.46" width="113.67" height="66.57"/><path class="cls-1" d="M102.1,62.51a2.68,2.68,0,1,1-2.68-2.68A2.69,2.69,0,0,1,102.1,62.51Z"/><path class="cls-1" d="M115.7,62.51A2.69,2.69,0,1,1,113,59.83,2.69,2.69,0,0,1,115.7,62.51Z"/><path class="cls-1" d="M127.66,62.51A2.69,2.69,0,1,1,125,59.83,2.69,2.69,0,0,1,127.66,62.51Z"/><path class="cls-1" d="M51.49,137.74a2.5,2.5,0,0,1-1.77-.74l-19.3-19.29a2.51,2.51,0,0,1-.73-1.78,2.48,2.48,0,0,1,.73-1.76L50.48,94.1A2.5,2.5,0,0,1,54,97.64l-18.3,18.29,17.53,17.54a2.49,2.49,0,0,1,0,3.53A2.46,2.46,0,0,1,51.49,137.74Z"/><path class="cls-1" d="M90.8,137.74A2.51,2.51,0,0,1,89,133.47l17.54-17.54L88.27,97.64A2.5,2.5,0,0,1,91.8,94.1l20.07,20.07a2.48,2.48,0,0,1,.73,1.76,2.51,2.51,0,0,1-.73,1.78L92.57,137A2.5,2.5,0,0,1,90.8,137.74Z"/><path class="cls-1" d="M56.28,145.08a2.43,2.43,0,0,1-1.07-.25A2.49,2.49,0,0,1,54,141.5L78.51,90.11A2.5,2.5,0,1,1,83,92.26L58.54,143.65A2.51,2.51,0,0,1,56.28,145.08Z"/></g></g></svg>